<?xml version="1.0" encoding="UTF-8"?>
<svg width="37px" height="15px" viewBox="0 0 37 15" version="1.1" xmlns="http://www.w3.org/2000/svg" xmlns:xlink="http://www.w3.org/1999/xlink">
    <!-- Generator: Sketch 54.1 (76490) - https://sketchapp.com -->
    <title>arrow</title>
    <desc>Created with Sketch.</desc>
    <g id="Page-3" stroke="none" stroke-width="1" fill="none" fill-rule="evenodd">
        <g id="Desktop-HD-Copy-20" transform="translate(-658.000000, -580.000000)" fill="#6E6E6E">
            <g id="left" transform="translate(79.000000, 0.000000)">
                <g id="content" transform="translate(36.000000, 40.000000)">
                    <g id="nav-links" transform="translate(0.000000, 521.000000)">
                        <g id="work" transform="translate(54.000000, 0.000000)">
                            <g id="arrow" transform="translate(490.000000, 19.000000)">
                                <path d="M35.8516545,7.20588233 L25.8932778,0.0628518861 C25.7878564,-0.0125070851 25.6511863,-0.0203644186 25.5385536,0.0407084917 C25.4255775,0.102495705 25.3548387,0.223927223 25.3548387,0.356787589 L25.3548387,14.6428485 C25.3548387,14.7757088 25.4255775,14.8974975 25.5385536,14.9592847 C25.5886889,14.9864282 25.6436316,15 25.698231,15 C25.7665661,15 25.8345578,14.9785709 25.8932778,14.9367842 L35.8516545,7.79375374 C35.9447138,7.7269664 36,7.61732088 36,7.49981803 C36,7.38231518 35.9443704,7.27266967 35.8516545,7.20588233 Z" id="Path-Copy" fill-rule="nonzero"></path>
                                <path d="M-2.13162821e-14,7.5 L25,7.5" id="Line-3" stroke="#6E6E6E" stroke-width="2" stroke-linecap="square" stroke-linejoin="bevel"></path>
                            </g>
                        </g>
                    </g>
                </g>
            </g>
        </g>
    </g>
</svg>